<?xml version="1.0" encoding="UTF-8" standalone="no"?>
<svg
   xmlns:dc="http://purl.org/dc/elements/1.1/"
   xmlns:cc="http://creativecommons.org/ns#"
   xmlns:rdf="http://www.w3.org/1999/02/22-rdf-syntax-ns#"
   xmlns:svg="http://www.w3.org/2000/svg"
   xmlns="http://www.w3.org/2000/svg"
   xmlns:sodipodi="http://sodipodi.sourceforge.net/DTD/sodipodi-0.dtd"
   xmlns:inkscape="http://www.inkscape.org/namespaces/inkscape"
   inkscape:version="1.0beta2 (2b71d25, 2019-12-03)"
   sodipodi:docname="Group499.svg"
   version="1.1"
   viewBox="0 0 445 480"
   height="480"
   width="445"
   data-name="Group 499"
   id="Group_499">
  <metadata
     id="metadata20">
    <rdf:RDF>
      <cc:Work
         rdf:about="">
        <dc:format>image/svg+xml</dc:format>
        <dc:type
           rdf:resource="http://purl.org/dc/dcmitype/StillImage" />
        <dc:title></dc:title>
      </cc:Work>
    </rdf:RDF>
  </metadata>
  <defs
     id="defs18" />
  <sodipodi:namedview
     inkscape:current-layer="Group_499"
     inkscape:window-maximized="0"
     inkscape:window-y="23"
     inkscape:window-x="0"
     inkscape:cy="365.11309"
     inkscape:cx="56.712449"
     inkscape:zoom="0.64706059"
     showgrid="false"
     id="namedview16"
     inkscape:window-height="798"
     inkscape:window-width="1440"
     inkscape:pageshadow="2"
     inkscape:pageopacity="0"
     guidetolerance="10"
     gridtolerance="10"
     objecttolerance="10"
     borderopacity="1"
     inkscape:document-rotation="0"
     bordercolor="#666666"
     pagecolor="#ffffff" />
  <g
     transform="rotate(39.897514,136.55978,356.35721)"
     id="g27">
    <path
       inkscape:connector-curvature="0"
       id="Path_1734"
       data-name="Path 1734"
       d="m 624.92,311.972 a 57.184,57.184 0 0 1 -4.985,-5.478 37.858,37.858 0 0 1 -3.992,-6.12 23.9,23.9 0 0 1 -2.229,-6.14 18.253,18.253 0 0 1 -0.385,-3.762 26.43,26.43 0 0 1 2.844,-11.28 60.06,60.06 0 0 1 9.362,-13.638 c 6.741,-7.673 11.591,-11.5 14.5,-13.32 0.182,-0.108 0.351,-0.209 0.513,-0.311 a 38.038,38.038 0 0 1 2.607,5.991 68.771,68.771 0 0 1 2.148,7.653 l -20.386,46.4 z m 23.3,-71.127 a 12.49,12.49 0 0 0 -1.148,-1.094 8.9,8.9 0 0 0 -1.473,-1.02 6.383,6.383 0 0 0 -3.5,-0.763 11.269,11.269 0 0 0 -1.473,0.216 26.266,26.266 0 0 0 -9,4.364 c -4.053,2.81 -9.213,7.3 -15.644,14.6 a 72.773,72.773 0 0 0 -11.3,16.6 39.113,39.113 0 0 0 -4.066,16.724 31.189,31.189 0 0 0 0.642,6.343 37.064,37.064 0 0 0 3.371,9.369 54.957,54.957 0 0 0 8.457,11.861 85.019,85.019 0 0 0 10.281,9.4 6.359,6.359 0 0 0 9.74,-2.459 l 24.668,-56.172 a 6.335,6.335 0 0 0 0.426,-3.769 84.1,84.1 0 0 0 -3.026,-11.327 45.437,45.437 0 0 0 -4.708,-9.977 21.677,21.677 0 0 0 -2.242,-2.9 z"
       transform="translate(-564.29,85.946)"
       fill="#f5f7fa" />
    <path
       inkscape:connector-curvature="0"
       id="Path_1735"
       data-name="Path 1735"
       d="M 629.179,190.15 Z"
       transform="translate(-399.887,-189.152)"
       fill="#f5f7fa" />
    <path
       inkscape:connector-curvature="0"
       id="Path_1736"
       data-name="Path 1736"
       d="m 633.984,257.914 a 38.664,38.664 0 0 1 2.607,-5.991 35.975,35.975 0 0 1 4.161,2.945 89.383,89.383 0 0 1 10.855,10.686 60.063,60.063 0 0 1 9.362,13.638 26.431,26.431 0 0 1 2.844,11.28 18.367,18.367 0 0 1 -0.385,3.769 v -0.007 a 23.99,23.99 0 0 1 -2.229,6.14 42.186,42.186 0 0 1 -6.505,9.065 c -0.79,0.858 -1.614,1.7 -2.458,2.513 l -20.379,-46.465 a 69.024,69.024 0 0 1 2.128,-7.572 l -6,-2.094 6,2.094 z m 10.065,67.067 a 6.365,6.365 0 0 0 9.747,2.459 79.006,79.006 0 0 0 13.4,-13.07 50.227,50.227 0 0 0 5.323,-8.187 37.069,37.069 0 0 0 3.371,-9.369 v -0.007 a 31.123,31.123 0 0 0 0.642,-6.336 39.112,39.112 0 0 0 -4.066,-16.724 72.773,72.773 0 0 0 -11.3,-16.6 c -7.349,-8.355 -13.036,-13.016 -17.312,-15.7 a 28.089,28.089 0 0 0 -5.39,-2.7 16.184,16.184 0 0 0 -1.945,-0.568 11.106,11.106 0 0 0 -1.473,-0.216 6.383,6.383 0 0 0 -3.5,0.763 8.9,8.9 0 0 0 -1.473,1.02 15.5,15.5 0 0 0 -1.979,2.047 28.668,28.668 0 0 0 -3.019,4.681 52.329,52.329 0 0 0 -3.1,7.241 v 0 a 83.526,83.526 0 0 0 -3.006,11.233 6.357,6.357 0 0 0 0.419,3.776 l 24.661,56.253 z"
       fill="#f5f7fa"
       transform="translate(-459.322,85.946)" />
    <path
       inkscape:connector-curvature="0"
       id="Path_1737"
       data-name="Path 1737"
       d="m 696.58,501.046 18.5,42.21 -37.9,86.3 a 11.771,11.771 0 0 1 -15.731,5.937 v 0 A 123.189,123.189 0 0 1 638.686,621.018 95.547,95.547 0 0 1 619,600.171 a 63.583,63.583 0 0 1 -9.815,-22.459 56.579,56.579 0 0 1 -1.222,-11.645 59.844,59.844 0 0 1 5.2,-23.993 94.563,94.563 0 0 1 16.089,-24.526 129.354,129.354 0 0 1 14.185,-14.05 68.18,68.18 0 0 1 13.036,-8.747 37.681,37.681 0 0 1 17.069,-4.377 29.154,29.154 0 0 1 15.874,4.607 36.245,36.245 0 0 1 7.167,6.066 z M 639.247,222.078 a 101.4,101.4 0 0 1 18.163,30.9 l 58.508,175.922 20.176,70.174 0.007,0.02 a 6.374,6.374 0 0 0 0.453,1.142 l 0.074,0.135 c 0.068,0.122 0.142,0.25 0.223,0.371 l 0.108,0.169 c 0.074,0.108 0.148,0.209 0.23,0.311 l 0.128,0.162 c 0.081,0.1 0.169,0.2 0.257,0.29 l 0.142,0.142 c 0.095,0.1 0.2,0.2 0.3,0.291 l 0.121,0.108 c 0.142,0.115 0.29,0.223 0.439,0.331 l 0.027,0.02 c 0.156,0.1 0.318,0.2 0.48,0.3 l 0.02,0.014 0.156,0.074 c 0.121,0.068 0.25,0.128 0.371,0.182 l 0.189,0.074 a 2.971,2.971 0 0 0 0.365,0.142 l 0.2,0.061 c 0.122,0.034 0.243,0.068 0.365,0.095 l 0.209,0.047 a 3.28,3.28 0 0 0 0.372,0.061 l 0.209,0.034 c 0.135,0.007 0.263,0.02 0.392,0.027 l 0.2,0.007 c 0.169,0 0.344,-0.007 0.52,-0.013 l 0.06,-0.007 c 0.2,-0.013 0.406,-0.041 0.608,-0.074 l 0.068,-0.02 c 0.175,-0.034 0.358,-0.074 0.533,-0.121 l 0.047,-0.014 0.074,-0.02 c 0.155,-0.047 0.311,-0.1 0.459,-0.162 l 0.149,-0.054 c 0.135,-0.061 0.277,-0.122 0.412,-0.189 l 0.142,-0.074 c 0.142,-0.074 0.291,-0.162 0.425,-0.25 l 0.088,-0.054 a 5.474,5.474 0 0 0 0.467,-0.338 l 0.189,-0.162 c 0.081,-0.074 0.162,-0.142 0.243,-0.223 a 2.642,2.642 0 0 0 0.2,-0.2 l 0.156,-0.155 a 35.8,35.8 0 0 1 7.7,-6.613 29.155,29.155 0 0 1 15.792,-4.559 37.682,37.682 0 0 1 17.069,4.377 68.177,68.177 0 0 1 13.036,8.747 129.349,129.349 0 0 1 14.185,14.05 94.348,94.348 0 0 1 16.082,24.526 59.738,59.738 0 0 1 5.208,23.993 56.575,56.575 0 0 1 -1.222,11.645 63.582,63.582 0 0 1 -9.821,22.451 95.546,95.546 0 0 1 -19.69,20.852 123.188,123.188 0 0 1 -22.763,14.477 11.769,11.769 0 0 1 -15.738,-5.944 l -38.948,-88.844 v 0 l -19.905,-45.391 -89.77,-290.545 a 78.117,78.117 0 0 1 21.062,17.305 z m 34.293,255.57 a 50.5,50.5 0 0 0 -22.777,5.728 81.36,81.36 0 0 0 -15.475,10.348 142.385,142.385 0 0 0 -15.6,15.421 107.288,107.288 0 0 0 -18.2,27.863 72.614,72.614 0 0 0 -6.255,29.059 69.008,69.008 0 0 0 1.5,14.266 76.229,76.229 0 0 0 11.726,26.967 108.131,108.131 0 0 0 22.291,23.668 135.746,135.746 0 0 0 25.343,16.076 v 0 a 24.5,24.5 0 0 0 32.74,-12.368 l 33.192,-75.576 33.132,75.564 a 24.5,24.5 0 0 0 32.743,12.377 135.341,135.341 0 0 0 25.343,-16.076 108.131,108.131 0 0 0 22.294,-23.665 76.228,76.228 0 0 0 11.726,-26.965 69.008,69.008 0 0 0 1.5,-14.266 72.73,72.73 0 0 0 -6.255,-29.059 107.287,107.287 0 0 0 -18.2,-27.863 142.39,142.39 0 0 0 -15.6,-15.421 81.156,81.156 0 0 0 -15.475,-10.348 50.5,50.5 0 0 0 -22.777,-5.728 42.305,42.305 0 0 0 -12.563,1.884 40.682,40.682 0 0 0 -4.026,1.493 l 53.4,-173.818 a 6.363,6.363 0 0 0 -12.165,-3.735 L 742.41,474.993 728.658,427.143 785.776,254.5 a 106.12,106.12 0 0 1 18.424,-31.794 80.255,80.255 0 0 1 21.183,-17.832 l -8.093,26.343 a 6.363,6.363 0 1 0 12.165,3.735 h -0.006 l 9.146,-29.761 0.074,-0.257 a 14.246,14.246 0 0 0 0.466,-3.58 12.806,12.806 0 0 0 -0.6,-3.924 11.06,11.06 0 0 0 -3.33,-5.08 9.753,9.753 0 0 0 -2.871,-1.709 9.574,9.574 0 0 0 -3.452,-0.642 10.3,10.3 0 0 0 -4.356,1 90.2,90.2 0 0 0 -30,23.452 118.679,118.679 0 0 0 -20.7,35.705 l -0.081,0.216 L 721.984,406.8 669.44,248.82 669.359,248.597 A 114.107,114.107 0 0 0 648.852,213.729 88.523,88.523 0 0 0 618.983,190.946 10.26,10.26 0 0 0 614.72,190 a 9.715,9.715 0 0 0 -4.465,1.087 9.973,9.973 0 0 0 -2.614,1.939 11.045,11.045 0 0 0 -2.432,3.864 12.522,12.522 0 0 0 -0.79,4.411 13.839,13.839 0 0 0 0.459,3.5 l 0.074,0.264 85.284,276.009 a 41.326,41.326 0 0 0 -16.7,-3.424 z"
       fill="#f5f7fa"
       transform="translate(-595.233,-190)" />
    <path
       inkscape:connector-curvature="0"
       id="Path_1738"
       data-name="Path 1738"
       d="m 632.806,200.551 a 6.363,6.363 0 1 0 6.363,6.363 6.359,6.359 0 0 0 -6.363,-6.363 z"
       transform="translate(-415.595,-129.282)"
       fill="#f5f7fa" />
  </g>
</svg>
